<svg xmlns="http://www.w3.org/2000/svg" width="100%" height="100%" viewBox="0 0 20 20"><path fill="#fff" fill-opacity=".01" d="M20 0H0v20h20V0z"/><path d="M10 18.333a8.308 8.308 0 005.893-2.44A8.308 8.308 0 0018.333 10a8.307 8.307 0 00-2.44-5.893A8.307 8.307 0 0010 1.667a8.307 8.307 0 00-5.892 2.44A8.307 8.307 0 001.667 10c0 2.301.933 4.384 2.44 5.893A8.307 8.307 0 0010 18.333z"/><path d="M3.518 3.518A9.14 9.14 0 0110 .833a9.14 9.14 0 016.482 2.685A9.14 9.14 0 0119.166 10a9.14 9.14 0 01-2.684 6.482A9.14 9.14 0 0110 19.167a9.14 9.14 0 01-6.482-2.685A9.14 9.14 0 01.833 10a9.14 9.14 0 012.685-6.482zM10 2.5a7.474 7.474 0 00-5.304 2.197A7.474 7.474 0 002.5 10c0 2.071.838 3.945 2.196 5.303A7.474 7.474 0 0010 17.5a7.474 7.474 0 005.303-2.197A7.474 7.474 0 0017.5 10a7.474 7.474 0 00-2.197-5.303A7.474 7.474 0 0010 2.5z" clip-rule="evenodd"/><path fill="#FAFBFD" fill-rule="evenodd" d="M14.756 6.91a.833.833 0 010 1.18l-5 5a.833.833 0 01-1.179 0l-2.5-2.5a.833.833 0 011.179-1.18l1.91 1.912 4.411-4.411a.833.833 0 011.179 0z" clip-rule="evenodd"/></svg>