<svg xmlns="http://www.w3.org/2000/svg" width="100%" height="100%" viewBox="0 0 16 16"><path fill="#fff" fill-opacity=".01" d="M0 0h16v16H0z"/><path fill-rule="evenodd" d="M13.185 13.185A7.31 7.31 0 018 15.333a7.31 7.31 0 01-5.185-2.148A7.31 7.31 0 01.667 8c0-1.97.782-3.82 2.148-5.185A7.311 7.311 0 018 .667c1.97 0 3.82.782 5.185 2.148A7.31 7.31 0 0115.333 8a7.31 7.31 0 01-2.148 5.185zM7 10.668h.5V7.333A.667.667 0 117.5 6h.667c.368 0 .666.299.666.667v4h.5a.667.667 0 010 1.333H7a.667.667 0 010-1.333zM8.833 4.5a.833.833 0 10-1.666 0 .833.833 0 001.666 0z" clip-rule="evenodd"/></svg>