<svg xmlns="http://www.w3.org/2000/svg" width="100%" height="100%" viewBox="0 0 14 14"><path fill="#fff" fill-opacity=".01" d="M14 0H0v14h14V0z"/><path fill-rule="evenodd" d="M6.125 1.75a4.375 4.375 0 100 8.75 4.375 4.375 0 000-8.75zM.583 6.125a5.542 5.542 0 119.851 3.484l2.143 2.143a.583.583 0 01-.825.825L9.61 10.434a5.542 5.542 0 01-9.026-4.31zm3.48-2.354a2.91 2.91 0 012.062-.854 2.91 2.91 0 012.062.854.583.583 0 11-.824.825 1.743 1.743 0 00-1.238-.513c-.483 0-.92.195-1.237.513a.583.583 0 01-.825-.825z" clip-rule="evenodd"/></svg>