<svg width="100%" height="100%" viewBox="0 0 13 13" fill="none" xmlns="http://www.w3.org/2000/svg"><path d="M10.306.043c-.038.005-.077.002-.115.002-.627 0-1.254-.002-1.88.001-.182 0-.362.023-.535.084a.84.84 0 00-.568.634c-.028.115-.04.232-.04.351 0 1.109 0 2.215.003 3.324 0 .228.014.455.102.673a.848.848 0 00.615.523c.104.026.211.036.318.036h3.596c.137 0 .274-.011.41-.038a.878.878 0 00.74-.742c.007-.036-.007-.086.048-.102V.962c-.007-.007-.008-.015-.008-.025-.025-.08-.028-.162-.055-.243-.117-.346-.358-.55-.706-.64A1.107 1.107 0 0011.91.02c-.022.001-.05.016-.065-.015h-1.468c-.006.043-.044.035-.07.038zm1.628.671c.066 0 .134.015.197.035.114.036.176.125.176.249 0 1.234.002 2.468-.002 3.702 0 .184-.141.296-.348.298-.63.005-1.258.002-1.888.002H8.205a.642.642 0 01-.21-.045c-.14-.051-.158-.173-.16-.295-.003-.619-.001-1.237-.001-1.856v-1.74c0-.107.024-.206.113-.28.076-.063.17-.071.258-.071 1.244-.002 2.487 0 3.73.001z" fill="#353636"/><path d="M10.293.018C9.642.02 8.99.02 8.34.02c-.155 0-.306.016-.457.05a.91.91 0 00-.494.276c-.175.2-.245.444-.245.703a599.7 599.7 0 000 3.446c0 .15.012.302.047.449.046.193.125.37.275.503.193.17.427.247.685.247 1.222.002 2.446.002 3.668 0 .154 0 .309-.008.457-.05.313-.088.554-.262.66-.59.028-.087.03-.18.063-.265-.053.016-.042.066-.048.102a.877.877 0 01-.74.742 2.273 2.273 0 01-.41.038H8.205c-.107 0-.214-.01-.318-.036-.289-.074-.502-.241-.616-.523-.087-.216-.102-.445-.102-.673-.003-1.109-.001-2.215-.001-3.324 0-.119.011-.236.04-.351A.84.84 0 017.774.13c.173-.06.353-.082.534-.084.627-.003 1.254-.001 1.88-.001.038 0 .078.003.116-.002.028-.003.064.003.07-.04-.02.035-.054.015-.082.015zM.043 4.807c.033.206.09.402.236.56.19.21.437.297.71.3 1.238.004 2.477.004 3.717 0 .155 0 .312-.017.464-.065a.88.88 0 00.645-.876c0-1.22 0-2.44.002-3.66a1.23 1.23 0 00-.04-.31.943.943 0 00-.784-.698A1.407 1.407 0 004.79.04c-.033 0-.074.01-.086-.04H3.235c-.021.035-.054.015-.08.015C2.475.016 1.797.012 1.12.018.876.02.64.061.424.195a.893.893 0 00-.39.544C.02.784.03.833.001.874v3.844c.048.014.036.057.041.089zM.695.997c0-.134.102-.242.239-.27.073-.014.145-.016.218-.016h3.612c.071 0 .139.013.205.033.123.04.178.114.178.24v3.72c0 .136-.063.22-.192.263A.61.61 0 014.751 5c-.614-.002-1.226-.002-1.84-.002-.621 0-1.241.002-1.863-.002-.104 0-.208-.014-.286-.1a.242.242 0 01-.067-.167C.693 3.487.693 2.242.695.996z" fill="#353636"/><path d="M.016 4.76a.968.968 0 00.106.414c.171.353.477.511.851.514 1.229.01 2.458.004 3.685.004.153 0 .307-.013.457-.05.447-.11.72-.435.723-.897.008-1.217.003-2.435.003-3.652 0-.08 0-.162-.015-.243a.972.972 0 00-.4-.643A1.078 1.078 0 004.819.02c-.038-.002-.08.02-.114-.015.012.05.055.04.086.04.07 0 .137.01.205.018.379.053.687.328.783.698.027.102.04.204.04.31-.002 1.22 0 2.44-.002 3.66 0 .424-.24.747-.645.876a1.535 1.535 0 01-.463.064c-1.24.004-2.478.005-3.718 0a.927.927 0 01-.71-.298c-.145-.16-.203-.355-.236-.561-.005-.031.007-.076-.043-.086.022.002.015.022.015.035zm1.201 7.838c.035-.005.071-.001.107-.001h3.398c.139 0 .274-.017.408-.051a.878.878 0 00.684-.878c.002-.417 0-.836 0-1.254v-2.44c0-.534-.353-.928-.884-.986a7.225 7.225 0 00-.567-.033c-.57-.011-1.138.009-1.706.022-.544.013-1.088.003-1.631.011-.19.004-.373.045-.54.134a.822.822 0 00-.424.55c-.011.047-.001.108-.06.133v3.86c.032.09.036.188.064.282.097.341.32.55.656.642.108.03.218.037.329.034.023 0 .054-.018.072.015h.033c.003-.038.035-.036.061-.04zm-.188-.67c-.201 0-.341-.108-.34-.338.007-1.209.004-2.418.002-3.628 0-.195.115-.299.302-.306 1.23-.04 2.46-.008 3.69-.013.105 0 .22-.006.323.05.09.05.14.118.14.226v1.855c0 .614-.003 1.226.002 1.84.002.2-.129.29-.308.318-.142.021-.28 0-.421-.002-1.13-.003-2.26-.001-3.39-.001z" fill="#353636"/><path d="M1.245 12.624c1.119-.002 2.239-.002 3.357 0 .155 0 .309-.003.462-.035a.976.976 0 00.536-.282.89.89 0 00.24-.62c.003-1.226.001-2.453.001-3.679 0-.103-.007-.204-.033-.305a.955.955 0 00-.605-.68c-.22-.087-.45-.083-.677-.088a13.9 13.9 0 00-1.143.008c-.313.02-.63.005-.945.016-.455.015-.912.005-1.37.004-.105 0-.209.01-.313.033-.303.069-.536.227-.67.516-.042.094-.045.198-.085.292.061-.025.05-.086.061-.132a.827.827 0 01.424-.551c.168-.089.35-.13.54-.134.544-.008 1.086.002 1.63-.011.57-.013 1.137-.033 1.706-.022.19.004.38.012.568.033.53.058.882.452.884.985v2.442c0 .417.002.836 0 1.253a.879.879 0 01-.685.878 1.615 1.615 0 01-.407.05H1.323c-.036 0-.071 0-.107.002-.027.004-.058 0-.061.04.024-.031.06-.013.09-.013zM.422.198C.637.066.874.023 1.118.022 1.796.015 2.474.02 3.152.018c.027 0 .06.02.081-.014-.028.016-.06.008-.089.008-.739.005-1.478-.013-2.217.01A.953.953 0 00.16.41.838.838 0 000 .878C.03.838.02.788.031.743A.9.9 0 01.422.198zM11.91.018c.108-.005.216.009.321.035.347.09.59.294.706.64.027.08.03.163.055.243V.929c.006-.464-.403-.878-.87-.912-.092-.007-.184.008-.277-.015.013.035.043.018.065.016zM1.05 12.624a1.101 1.101 0 01-.33-.035c-.336-.092-.558-.3-.656-.641-.026-.094-.03-.191-.064-.282.018.087.013.178.035.265.09.376.42.67.801.693.096.007.192-.01.286.013-.018-.031-.05-.014-.073-.013z" fill="#353636"/><path d="M8.09 9.044c-.204.004-.337.137-.337.33v2.834c0 .203.14.332.343.328.213-.003.346-.113.348-.325.003-.946.002-1.895 0-2.842 0-.198-.139-.328-.355-.325zm4.173.004c-.164-.03-.385.08-.385.3-.003.482 0 .962 0 1.443v1.435c0 .027-.001.056.007.081.054.155.238.267.388.231.188-.045.295-.119.296-.353.004-.915.002-1.83.002-2.746-.002-.238-.076-.348-.308-.391zm-1.53.988c-.042-.155-.214-.277-.364-.25-.204.04-.32.11-.322.345-.005.678-.001 1.358-.001 2.036 0 .228.094.33.288.366.184.035.403-.074.405-.315V10.107c0-.022 0-.048-.006-.071zm-.456-3.01c-.144.03-.231.168-.231.326V8.81c0 .216.066.347.298.391.17.031.396-.086.395-.305-.002-.26 0-.521 0-.784 0-.252-.004-.504 0-.758.004-.314-.241-.377-.462-.329zm-1.963.042c-.081-.056-.167-.054-.254-.054a.298.298 0 00-.306.302v.874a.277.277 0 00.081.203c.086.086.185.11.3.107.164-.005.31-.147.31-.308.002-.292.004-.583-.001-.875 0-.1-.04-.186-.13-.249zm4.227.14c-.036-.102-.161-.194-.295-.198-.236-.008-.39.13-.371.377.008.115.002.23.002.346v.412c0 .025 0 .05.006.073.053.17.213.256.395.23.181-.026.287-.138.29-.324.005-.26.002-.523.002-.784a.383.383 0 00-.029-.132zM3.86 2.291a.303.303 0 00-.254-.226.448.448 0 00-.066-.006c-.01 0-.025.003-.028-.014h-.475c-.007.012-.018.005-.027.005-.219 0-.438-.001-.658.002a.42.42 0 00-.226.058.288.288 0 00-.127.176c-.003.015 0 .032-.01.043v1.246c.017.003.012.018.014.028.011.067.03.13.075.181a.304.304 0 00.23.097c.4.002.803.002 1.204 0 .051 0 .1-.005.15-.021a.287.287 0 00.21-.284V2.39a.339.339 0 00-.012-.099zm7.15-.127a.303.303 0 00-.253-.226.446.446 0 00-.066-.006c-.01 0-.025.003-.028-.014h-.475c-.007.012-.019.005-.027.005-.22 0-.439-.001-.658.002a.42.42 0 00-.226.058.288.288 0 00-.127.176c-.003.015 0 .032-.01.043v1.246c.017.003.012.018.013.028.012.067.03.13.076.181a.304.304 0 00.23.097c.4.002.803.002 1.204 0 .05 0 .1-.005.15-.021a.287.287 0 00.21-.284V2.263a.287.287 0 00-.012-.099zM3.85 9.2a.303.303 0 00-.254-.226.448.448 0 00-.066-.006c-.01 0-.025.003-.028-.013h-.475c-.007.011-.018.005-.026.005-.22 0-.44-.002-.659.001a.42.42 0 00-.226.058.288.288 0 00-.127.176c-.003.015 0 .032-.01.043v1.246c.017.003.012.018.014.028.011.067.03.13.076.181a.304.304 0 00.229.098h1.204c.051 0 .1-.005.15-.022a.287.287 0 00.21-.284V9.298A.338.338 0 003.85 9.2z" fill="#353636"/></svg>