<svg width="24" height="24" viewBox="0 0 24 24" fill="none" xmlns="http://www.w3.org/2000/svg">
<path d="M24 0H0V24H24V0Z" fill="white" fill-opacity="0.01"/>
<path d="M12 22C14.9801 22 13.1679 17.568 15 15.5C16.5632 13.7354 22 14.5428 22 12C22 6.47715 17.5229 2 12 2C6.47715 2 2 6.47715 2 12C2 17.5229 6.47715 22 12 22Z" fill="white" stroke="#333333" stroke-width="2" stroke-linejoin="round"/>
<path d="M14 8.5C14.8284 8.5 15.5 7.82845 15.5 7C15.5 6.17155 14.8284 5.5 14 5.5C13.1715 5.5 12.5 6.17155 12.5 7C12.5 7.82845 13.1715 8.5 14 8.5Z" fill="white" stroke="#333333" stroke-width="2" stroke-linejoin="round"/>
<path d="M8 10.5C8.82845 10.5 9.5 9.82845 9.5 9C9.5 8.17155 8.82845 7.5 8 7.5C7.17155 7.5 6.5 8.17155 6.5 9C6.5 9.82845 7.17155 10.5 8 10.5Z" fill="white" stroke="#333333" stroke-width="2" stroke-linejoin="round"/>
<path d="M8.5 17C9.32845 17 10 16.3284 10 15.5C10 14.6715 9.32845 14 8.5 14C7.67155 14 7 14.6715 7 15.5C7 16.3284 7.67155 17 8.5 17Z" fill="white" stroke="#333333" stroke-width="2" stroke-linejoin="round"/>
</svg>
