<svg width="18" height="18" viewBox="0 0 18 18" fill="none" xmlns="http://www.w3.org/2000/svg">
<path d="M18 0H0V18H18V0Z" fill="white" fill-opacity="0.01"/>
<path fill-rule="evenodd" clip-rule="evenodd" d="M16.8271 2.13924C16.9275 1.87222 16.8702 1.5595 16.6554 1.34467C16.4406 1.12995 16.1281 1.07264 15.8612 1.17275L1.62724 6.15463C1.33699 6.25621 1.13816 6.52469 1.12563 6.83195C1.11309 7.13921 1.28939 7.42299 1.5704 7.54788L7.7193 10.2807L10.4521 16.4296C10.577 16.7106 10.8608 16.8869 11.1681 16.8744C11.4753 16.8619 11.7438 16.663 11.8454 16.3728L16.8271 2.13924ZM13.2708 3.66862L3.90831 6.94547L8.12141 8.81796L13.2708 3.66862ZM9.18207 9.87863L14.3314 4.7293L11.0546 14.0917L9.18207 9.87863Z" fill="black" fill-opacity="0.84"/>
</svg>
