<svg width="20" height="20" viewBox="0 0 20 20" fill="none" xmlns="http://www.w3.org/2000/svg">
<mask id="mask0" mask-type="alpha" maskUnits="userSpaceOnUse" x="0" y="0" width="20" height="20">
<path fill-rule="evenodd" clip-rule="evenodd" d="M0 0H20V20H0V0Z" fill="white"/>
</mask>
<g mask="url(#mask0)">
<path d="M10.8196 1.21484C10.8196 0.754606 10.4465 0.38151 9.98629 0.38151C9.52605 0.38151 9.15295 0.754606 9.15295 1.21484H10.8196ZM9.15295 2.52734C9.15295 2.98758 9.52605 3.36068 9.98629 3.36068C10.4465 3.36068 10.8196 2.98758 10.8196 2.52734H9.15295ZM16.7628 4.36691C17.0883 4.04148 17.0883 3.51384 16.7628 3.1884C16.4374 2.86297 15.9097 2.86297 15.5843 3.1884L16.7628 4.36691ZM14.6562 4.11648C14.3308 4.44192 14.3308 4.96955 14.6562 5.29499C14.9817 5.62043 15.5093 5.62043 15.8347 5.29499L14.6562 4.11648ZM18.7363 10.7982C19.1966 10.7982 19.5697 10.4251 19.5697 9.96484C19.5697 9.50461 19.1966 9.13151 18.7363 9.13151V10.7982ZM17.4238 9.13151C16.9636 9.13151 16.5905 9.50461 16.5905 9.96484C16.5905 10.4251 16.9636 10.7982 17.4238 10.7982V9.13151ZM15.5843 16.7413C15.9097 17.0667 16.4374 17.0667 16.7628 16.7413C17.0883 16.4158 17.0883 15.8882 16.7628 15.5628L15.5843 16.7413ZM15.8347 14.6347C15.5093 14.3093 14.9817 14.3093 14.6562 14.6347C14.3308 14.9601 14.3308 15.4878 14.6562 15.8132L15.8347 14.6347ZM9.15295 18.7148C9.15295 19.1751 9.52605 19.5482 9.98629 19.5482C10.4465 19.5482 10.8196 19.1751 10.8196 18.7148H9.15295ZM10.8196 17.4023C10.8196 16.9421 10.4465 16.569 9.98629 16.569C9.52605 16.569 9.15295 16.9421 9.15295 17.4023H10.8196ZM3.20994 15.5628C2.8845 15.8882 2.8845 16.4158 3.20994 16.7413C3.53538 17.0667 4.06301 17.0667 4.38845 16.7413L3.20994 15.5628ZM5.31653 15.8132C5.64196 15.4878 5.64196 14.9601 5.31653 14.6347C4.99109 14.3093 4.46345 14.3093 4.13802 14.6347L5.31653 15.8132ZM1.23633 9.13151C0.776091 9.13151 0.402995 9.50461 0.402995 9.96484C0.402995 10.4251 0.776091 10.7982 1.23633 10.7982V9.13151ZM2.54883 10.7982C3.00907 10.7982 3.38216 10.4251 3.38216 9.96484C3.38216 9.50461 3.00907 9.13151 2.54883 9.13151V10.7982ZM4.38845 3.1884C4.06301 2.86297 3.53538 2.86297 3.20994 3.1884C2.8845 3.51384 2.8845 4.04148 3.20994 4.36691L4.38845 3.1884ZM4.13802 5.29499C4.46345 5.62043 4.99109 5.62043 5.31653 5.29499C5.64196 4.96955 5.64196 4.44192 5.31653 4.11648L4.13802 5.29499ZM9.15295 1.21484V2.52734H10.8196V1.21484H9.15295ZM15.5843 3.1884L14.6562 4.11648L15.8347 5.29499L16.7628 4.36691L15.5843 3.1884ZM18.7363 9.13151H17.4238V10.7982H18.7363V9.13151ZM16.7628 15.5628L15.8347 14.6347L14.6562 15.8132L15.5843 16.7413L16.7628 15.5628ZM10.8196 18.7148V17.4023H9.15295V18.7148H10.8196ZM4.38845 16.7413L5.31653 15.8132L4.13802 14.6347L3.20994 15.5628L4.38845 16.7413ZM1.23633 10.7982H2.54883V9.13151H1.23633V10.7982ZM3.20994 4.36691L4.13802 5.29499L5.31653 4.11648L4.38845 3.1884L3.20994 4.36691Z" fill="#333333"/>
<path d="M9.98633 14.9648C12.7478 14.9648 14.9863 12.7263 14.9863 9.96484C14.9863 7.20342 12.7478 4.96484 9.98633 4.96484C7.2249 4.96484 4.98633 7.20342 4.98633 9.96484C4.98633 12.7263 7.2249 14.9648 9.98633 14.9648Z" stroke="#333333" stroke-width="1.66667" stroke-linejoin="round"/>
</g>
</svg>
