<svg width="24" height="24" viewBox="0 0 24 24" fill="none" xmlns="http://www.w3.org/2000/svg">
<path d="M10.001 6L10.001 12.7857L10.001 16L4.00098 16L4.00098 12.7857L4.00098 6L10.001 6Z" stroke="white" stroke-width="2" stroke-linecap="round" stroke-linejoin="round"/>
<path d="M20.001 3L20.001 11.8214L20.001 16L14.001 16L14.001 11.8214L14.001 3L20.001 3Z" stroke="white" stroke-width="2" stroke-linecap="round" stroke-linejoin="round"/>
<path d="M21.8311 21.0002C21.8311 21.5525 21.3833 22.0002 20.8311 22.0002L8.08176 22.0002L2.56896 22.0002C2.01667 22.0002 1.56896 21.5525 1.56896 21.0002C1.56896 20.448 2.01667 20.0002 2.56896 20.0002L8.08176 20.0002L20.8311 20.0002C21.3833 20.0002 21.8311 20.448 21.8311 21.0002Z" fill="white"/>
<path d="M20.4434 18.9996L22.5007 20.8914L20.4434 22.7832" stroke="white" stroke-width="2" stroke-linecap="round" stroke-linejoin="round"/>
<path d="M3.55762 23.0005L1.50028 21.1087L3.55762 19.2169" stroke="white" stroke-width="2" stroke-linecap="round" stroke-linejoin="round"/>
</svg>
