<svg width="100%" height="100%" viewBox="0 0 44 44" xmlns="http://www.w3.org/2000/svg"><g fill-rule="evenodd"><g transform="rotate(135 18.459 20.75)"><path d="M1.987 22.987l22.482-.146a1.987 1.987 0 0 1 2 1.987v.013a2 2 0 0 1-1.987 2L2 26.987A1.987 1.987 0 0 1 0 25v-.013a2 2 0 0 1 1.987-2z"/><rect transform="rotate(90 24.5 13.5)" x="11.5" y="11.5" width="26" height="4" rx="2"/></g><path d="M10.008 20.414l15.794-16a1.987 1.987 0 0 1 2.82-.009l.008.01a2 2 0 0 1 .01 2.818l-15.794 16a1.987 1.987 0 0 1-2.82.01l-.008-.01a2 2 0 0 1-.01-2.819z"/><rect transform="rotate(45 19.607 30.407)" x="6.607" y="28.407" width="26" height="4" rx="2"/></g></svg>