<svg width="22" height="22" viewBox="0 0 22 22" fill="none" xmlns="http://www.w3.org/2000/svg">
<path d="M22 0H0V22H22V0Z" fill="white" fill-opacity="0.01"/>
<path fill-rule="evenodd" clip-rule="evenodd" d="M7.06485 5.76849C6.70687 5.4105 6.12647 5.4105 5.76849 5.76849C5.4105 6.12647 5.4105 6.70687 5.76849 7.06485L9.70364 11L5.76849 14.9352C5.4105 15.2931 5.4105 15.8735 5.76849 16.2315C6.12647 16.5895 6.70687 16.5895 7.06485 16.2315L11 12.2964L14.9352 16.2315C15.2931 16.5895 15.8735 16.5895 16.2315 16.2315C16.5895 15.8735 16.5895 15.2931 16.2315 14.9352L12.2964 11L16.2315 7.06485C16.5895 6.70687 16.5895 6.12647 16.2315 5.76849C15.8735 5.4105 15.2931 5.4105 14.9352 5.76849L11 9.70364L7.06485 5.76849Z" fill="#666666"/>
</svg>
