<svg xmlns="http://www.w3.org/2000/svg" width="100%" height="100%" viewBox="0 0 20 20"><path fill-opacity=".01" d="M20 0H0v20h20V0z"/><path fill-rule="evenodd" d="M10 16a6 6 0 100-12 6 6 0 000 12z" clip-rule="evenodd"/><path fill="#EBEBEB" fill-rule="evenodd" d="M3.518 3.518A9.14 9.14 0 0110 .833a9.14 9.14 0 016.482 2.685A9.14 9.14 0 0119.166 10a9.14 9.14 0 01-2.684 6.482A9.14 9.14 0 0110 19.167a9.14 9.14 0 01-6.482-2.685A9.14 9.14 0 01.833 10a9.14 9.14 0 012.685-6.482zM10 2.5a7.474 7.474 0 00-5.304 2.197A7.474 7.474 0 002.5 10c0 2.071.838 3.945 2.196 5.303A7.474 7.474 0 0010 17.5a7.474 7.474 0 005.303-2.197A7.474 7.474 0 0017.5 10a7.474 7.474 0 00-2.197-5.303A7.474 7.474 0 0010 2.5z" clip-rule="evenodd"/></svg>