<svg width="100%" height="100%" viewBox="0 0 24 24" xmlns="http://www.w3.org/2000/svg">
<path fill-opacity=".01" d="M2 6C2 3.79086 3.79086 2 6 2H18C20.2091 2 22 3.79086 22 6V18C22 20.2091 20.2091 22 18 22H6C3.79086 22 2 20.2091 2 18V6Z" fill="white"/>
<path d="M6 3H18V1H6V3ZM21 6V18H23V6H21ZM18 21H6V23H18V21ZM3 18V6H1V18H3ZM6 21C4.34315 21 3 19.6569 3 18H1C1 20.7614 3.23858 23 6 23V21ZM21 18C21 19.6569 19.6569 21 18 21V23C20.7614 23 23 20.7614 23 18H21ZM18 3C19.6569 3 21 4.34315 21 6H23C23 3.23858 20.7614 1 18 1V3ZM6 1C3.23858 1 1 3.23858 1 6H3C3 4.34315 4.34315 3 6 3V1Z" />
</svg>
