<svg width="100%" height="100%" viewBox="0 0 22 22" fill="none" xmlns="http://www.w3.org/2000/svg">
<path d="M5.5 12.375C6.25939 12.375 6.875 11.7594 6.875 11C6.875 10.2406 6.25939 9.625 5.5 9.625C4.74061 9.625 4.125 10.2406 4.125 11C4.125 11.7594 4.74061 12.375 5.5 12.375Z" fill="#666666"/>
<path d="M11 12.375C11.7594 12.375 12.375 11.7594 12.375 11C12.375 10.2406 11.7594 9.625 11 9.625C10.2406 9.625 9.625 10.2406 9.625 11C9.625 11.7594 10.2406 12.375 11 12.375Z" fill="#666666"/>
<path d="M16.5 12.375C17.2594 12.375 17.875 11.7594 17.875 11C17.875 10.2406 17.2594 9.625 16.5 9.625C15.7406 9.625 15.125 10.2406 15.125 11C15.125 11.7594 15.7406 12.375 16.5 12.375Z" fill="#666666"/>
</svg>
