<svg width="20" height="20" viewBox="0 0 20 20" fill="none" xmlns="http://www.w3.org/2000/svg">
<mask id="mask0" mask-type="alpha" maskUnits="userSpaceOnUse" x="0" y="0" width="20" height="20">
<rect width="20" height="20" fill="#C4C4C4"/>
</mask>
<g mask="url(#mask0)">
<path opacity="0.5" d="M18.2369 10C18.2369 8.83024 18.9715 7.83912 20 7.44445C19.7582 6.49282 19.381 5.58085 18.88 4.73646C18.3741 4.96366 17.811 5.03166 17.2655 4.93143C16.72 4.8312 16.2179 4.56748 15.8258 4.17526C15.4337 3.78304 15.1701 3.28086 15.07 2.73535C14.9699 2.18985 15.038 1.6268 15.2653 1.12091C14.4203 0.620002 13.5079 0.242543 12.556 0C12.358 0.517756 12.0078 0.963373 11.5515 1.27812C11.0953 1.59286 10.5543 1.76197 10 1.76313C9.44564 1.76243 8.90454 1.59351 8.44824 1.27869C7.99193 0.963881 7.64191 0.518002 7.44445 0C6.49278 0.242064 5.5808 0.619554 4.73646 1.12091C4.96307 1.6268 5.03077 2.18956 4.93062 2.73476C4.83047 3.27996 4.56718 3.78191 4.17557 4.17424C3.7831 4.56529 3.2814 4.82831 2.73653 4.92867C2.19166 5.02903 1.62917 4.96202 1.12313 4.73646C0.620146 5.58025 0.241861 6.49235 1.99543e-05 7.44445C0.517699 7.64239 0.963261 7.99253 1.278 8.44873C1.59273 8.90492 1.76187 9.44577 1.76313 10C1.76313 11.1698 1.02847 12.1609 0 12.5556C0.242062 13.5072 0.619553 14.4192 1.12091 15.2636C1.6268 15.0368 2.18966 14.9691 2.73487 15.0696C3.28008 15.17 3.7819 15.4338 4.17378 15.8259C4.56567 16.218 4.82912 16.72 4.92921 17.2653C5.0293 17.8105 4.9613 18.3734 4.73422 18.8791C5.57951 19.3802 6.49218 19.7576 7.44445 20C7.64242 19.4822 7.99263 19.0366 8.44892 18.7219C8.9052 18.4072 9.44615 18.2381 10.0005 18.2369C11.1702 18.2369 12.1613 18.9715 12.556 20C13.5076 19.7582 14.4196 19.381 15.264 18.88C15.0371 18.374 14.9692 17.8109 15.0694 17.2654C15.1695 16.72 15.433 16.2178 15.8249 15.8253C16.2174 15.4343 16.7191 15.1714 17.264 15.0711C17.8089 14.9709 18.3713 15.0379 18.8773 15.2636C19.3802 14.4197 19.7583 13.5076 20 12.5556C19.4819 12.3581 19.036 12.008 18.7212 11.5516C18.4064 11.0952 18.2375 10.554 18.2369 9.99956V10ZM10.2164 13.0436C9.8453 13.0434 9.47782 12.9702 9.13498 12.828C8.79214 12.6858 8.48067 12.4775 8.21833 12.215C7.95599 11.9524 7.74794 11.6408 7.60604 11.2979C7.46415 10.9549 7.39119 10.5874 7.39134 10.2162C7.39149 9.84508 7.46473 9.4776 7.6069 9.13476C7.74907 8.79192 7.95737 8.48045 8.21991 8.21811C8.48245 7.95578 8.7941 7.74772 9.13705 7.60582C9.48 7.46393 9.84754 7.39097 10.2187 7.39112C10.9682 7.39142 11.687 7.68946 12.2168 8.21969C12.7466 8.74992 13.0441 9.4689 13.0438 10.2185C13.0435 10.968 12.7454 11.6868 12.2152 12.2166C11.685 12.7464 10.966 13.0439 10.2164 13.0436Z" fill="#999999"/>
<path d="M14.6092 9.77778C14.6092 9.09158 15.0403 8.50979 15.6435 8.27823C15.5017 7.72004 15.2804 7.18511 14.9866 6.6898C14.6898 6.82308 14.3595 6.86297 14.0395 6.80418C13.7195 6.7454 13.4249 6.59072 13.1948 6.36065C12.9648 6.13059 12.8101 5.83602 12.7513 5.51601C12.6925 5.19601 12.7324 4.86569 12.8657 4.56889C12.37 4.27498 11.8348 4.05349 11.2764 3.91113C11.1602 4.21487 10.9547 4.47627 10.687 4.6609C10.4193 4.84552 10.102 4.94469 9.77681 4.94533C9.45155 4.945 9.13406 4.84595 8.8663 4.66128C8.59855 4.47662 8.39315 4.21504 8.27726 3.91113C7.71902 4.05323 7.18409 4.27475 6.68882 4.56891C6.82173 4.86566 6.86145 5.19576 6.80272 5.51557C6.74399 5.83537 6.58958 6.12982 6.35991 6.35999C6.12964 6.58948 5.83525 6.74383 5.51553 6.8027C5.1958 6.86157 4.86574 6.8222 4.56883 6.68978C4.27385 7.18474 4.052 7.71975 3.91016 8.27821C4.21389 8.39437 4.4753 8.59984 4.65992 8.86754C4.84455 9.13523 4.94372 9.4526 4.94436 9.77778C4.94436 10.464 4.51327 11.0458 3.91016 11.2773C4.05226 11.8356 4.27377 12.3705 4.56793 12.8658C4.8647 12.7328 5.19488 12.6931 5.51471 12.752C5.83453 12.8109 6.1289 12.9657 6.35881 13.1957C6.58871 13.4257 6.7433 13.7201 6.80207 14.04C6.86085 14.3598 6.82104 14.69 6.68792 14.9867C7.18361 15.2806 7.71881 15.5021 8.27726 15.6444C8.39341 15.3407 8.59888 15.0793 8.86657 14.8947C9.13427 14.7101 9.45162 14.6109 9.77681 14.6102C10.463 14.6102 11.0448 15.0413 11.2764 15.6444C11.8346 15.5022 12.3697 15.2813 12.8648 14.9876C12.7317 14.6907 12.6919 14.3604 12.7506 14.0404C12.8093 13.7204 12.9638 13.4258 13.1937 13.1956C13.424 12.9661 13.7184 12.8117 14.0381 12.7529C14.3578 12.694 14.6879 12.7334 14.9848 12.8658C15.2798 12.3708 15.5016 11.8358 15.6435 11.2774C15.3395 11.1615 15.078 10.9561 14.8933 10.6883C14.7086 10.4205 14.6096 10.103 14.6092 9.77778ZM9.90393 11.5631C9.46426 11.563 9.04264 11.3882 8.73183 11.0773C8.42102 10.7663 8.24647 10.3446 8.24659 9.9049C8.24671 9.46523 8.42148 9.04362 8.73245 8.73281C9.04343 8.422 9.46514 8.24745 9.90481 8.24757C10.3445 8.24768 10.7661 8.42245 11.0769 8.73343C11.3877 9.0444 11.5623 9.46611 11.5621 9.90578C11.562 10.3455 11.3873 10.7671 11.0763 11.0779C10.7653 11.3887 10.3436 11.5632 9.90393 11.5631Z" fill="#333333"/>
</g>
</svg>
