<svg width="20" height="20" viewBox="0 0 20 20" fill="none" xmlns="http://www.w3.org/2000/svg">
<mask id="mask0" mask-type="alpha" maskUnits="userSpaceOnUse" x="0" y="0" width="20" height="20">
<path d="M0 0H20V20H0V0Z" fill="#C4C4C4"/>
</mask>
<g mask="url(#mask0)">
<path opacity="0.6" fill-rule="evenodd" clip-rule="evenodd" d="M3.74219 2.46252C2.08533 2.46252 0.742188 3.80567 0.742188 5.46253V6.36096V6.3613V16.8764C0.742188 18.5332 2.08533 19.8764 3.74219 19.8764H16.1956C17.8525 19.8764 19.1956 18.5332 19.1956 16.8764V6.3613V6.36096V5.46252C19.1956 3.80567 17.8525 2.46252 16.1956 2.46252H3.74219ZM4 7.1C4 6.76863 4.26863 6.5 4.6 6.5H15.4C15.7314 6.5 16 6.76863 16 7.1V15.7C16 16.0314 15.7314 16.3 15.4 16.3H4.6C4.26863 16.3 4 16.0314 4 15.7V7.1Z" fill="#999999"/>
<path opacity="0.6" d="M4.39313 0.123413C4.73775 0.123413 5.06825 0.260312 5.31194 0.503993C5.55562 0.747675 5.69252 1.07818 5.69252 1.4228V2.46261H3.09375V1.4228C3.09375 1.07818 3.23065 0.747675 3.47433 0.503993C3.71801 0.260312 4.04852 0.123413 4.39313 0.123413ZM10.0969 0.123413C10.2675 0.12341 10.4365 0.157017 10.5941 0.222316C10.7518 0.287614 10.895 0.383326 11.0157 0.503985C11.1364 0.624644 11.2321 0.767888 11.2974 0.925538C11.3627 1.08319 11.3963 1.25216 11.3963 1.4228V2.46261H8.79752V1.4228C8.79752 1.07823 8.93438 0.747777 9.17799 0.504105C9.42161 0.260432 9.75232 0.123496 10.0969 0.123413ZM15.5772 0.123413C15.9218 0.123413 16.2523 0.260312 16.496 0.503993C16.7396 0.747675 16.8765 1.07818 16.8765 1.4228V2.46261H14.2778V1.4228C14.2778 1.25216 14.3114 1.08319 14.3767 0.925544C14.442 0.767895 14.5377 0.624652 14.6584 0.503993C14.779 0.383334 14.9223 0.287623 15.0799 0.222323C15.2376 0.157023 15.4065 0.123413 15.5772 0.123413Z" fill="#666666"/>
<path d="M3.09375 2.46252H5.69252V3.76193C5.69252 4.10655 5.55562 4.43705 5.31194 4.68073C5.06825 4.92442 4.73775 5.06131 4.39313 5.06131C4.04852 5.06131 3.71801 4.92442 3.47433 4.68073C3.23065 4.43705 3.09375 4.10655 3.09375 3.76193V2.46252ZM8.79768 2.46252H11.3968V3.76193C11.3968 4.10655 11.2599 4.43705 11.0162 4.68073C10.7725 4.92442 10.442 5.06131 10.0974 5.06131C9.75276 5.06131 9.42225 4.92442 9.17857 4.68073C8.93489 4.43705 8.79799 4.10655 8.79799 3.76193L8.79768 2.46252ZM14.282 2.46252H16.8808V3.76193C16.8808 3.93257 16.8472 4.10154 16.7819 4.25918C16.7166 4.41683 16.6209 4.56007 16.5002 4.68073C16.3796 4.80139 16.2363 4.8971 16.0787 4.9624C15.921 5.0277 15.7521 5.06131 15.5814 5.06131C15.4108 5.06131 15.2418 5.0277 15.0842 4.9624C14.9265 4.8971 14.7833 4.80139 14.6626 4.68073C14.542 4.56007 14.4463 4.41683 14.381 4.25918C14.3157 4.10154 14.282 3.93257 14.282 3.76193L14.282 2.46252Z" fill="#666666"/>
<path d="M9.75972 14.724C9.27484 15.1865 8.50953 15.1778 8.03532 14.7043L5.68023 12.353C5.22267 11.8962 5.22237 11.1548 5.67956 10.6976C6.13609 10.2411 6.87614 10.2406 7.33323 10.6966L8.88793 12.2475L12.9588 8.42748C13.421 7.9937 14.1442 8.00522 14.5924 8.4535C15.0585 8.91967 15.0495 9.67811 14.5725 10.1331L9.75972 14.724Z" fill="#333333"/>
</g>
</svg>
