<svg width="20" height="20" viewBox="0 0 20 20" fill="none" xmlns="http://www.w3.org/2000/svg">
<mask id="mask0" mask-type="alpha" maskUnits="userSpaceOnUse" x="0" y="0" width="20" height="20">
<path d="M20 0H0V20H20V0Z" fill="white"/>
</mask>
<g mask="url(#mask0)">
<path opacity="0.5" fill-rule="evenodd" clip-rule="evenodd" d="M4.3076 0.37146H15.691C17.5771 0.37146 19.106 1.9005 19.106 3.78661V12.8932C19.106 14.7793 17.5771 16.3082 15.691 16.3082H4.3076C2.42153 16.3082 0.892578 14.7793 0.892578 12.8932V3.78659C0.892578 1.90049 2.4215 0.37146 4.3076 0.37146ZM6.58561 17.4468H13.4156C14.0443 17.4468 14.554 17.9564 14.554 18.5851C14.554 19.2138 14.0443 19.7235 13.4156 19.7235H6.58561C5.95692 19.7235 5.44727 19.2138 5.44727 18.5851C5.44727 17.9564 5.95692 17.4468 6.58561 17.4468Z" fill="#999999"/>
<path fill-rule="evenodd" clip-rule="evenodd" d="M14.4832 8.33988L12.2756 6.13225C11.9422 5.79884 11.9422 5.25827 12.2756 4.92486C12.609 4.59145 13.1496 4.59145 13.483 4.92486L16.5291 7.97096C16.7328 8.17471 16.7328 8.50506 16.5291 8.70881L13.483 11.7549C13.1496 12.0883 12.609 12.0883 12.2756 11.7549C11.9422 11.4215 11.9422 10.8809 12.2756 10.5475L14.4832 8.33988Z" fill="#333333"/>
<path fill-rule="evenodd" clip-rule="evenodd" d="M6.51463 4.92486C6.84804 4.59145 7.38861 4.59145 7.72202 4.92486C8.05543 5.25828 8.05543 5.79884 7.72202 6.13225L5.51439 8.33988L7.72202 10.5475C8.05543 10.8809 8.05543 11.4215 7.72202 11.7549C7.38861 12.0883 6.84804 12.0883 6.51463 11.7549L3.46853 8.70881C3.26478 8.50506 3.26478 8.17471 3.46853 7.97096L6.51463 4.92486Z" fill="#333333"/>
</g>
</svg>
