<svg width="20" height="20" viewBox="0 0 20 20" fill="none" xmlns="http://www.w3.org/2000/svg">
<mask id="mask0" mask-type="alpha" maskUnits="userSpaceOnUse" x="0" y="0" width="20" height="20">
<path d="M20 0H0V20H20V0Z" fill="white"/>
</mask>
<g mask="url(#mask0)">
<path opacity="0.4" fill-rule="evenodd" clip-rule="evenodd" d="M4.3076 0.37146H15.691C17.5771 0.37146 19.106 1.9005 19.106 3.78661V12.8932C19.106 14.7793 17.5771 16.3082 15.691 16.3082H4.3076C2.42153 16.3082 0.892578 14.7793 0.892578 12.8932V3.78659C0.892578 1.90049 2.4215 0.37146 4.3076 0.37146ZM6.58561 17.4468H13.4156C14.0443 17.4468 14.554 17.9564 14.554 18.5851C14.554 19.2138 14.0443 19.7235 13.4156 19.7235H6.58561C5.95692 19.7235 5.44727 19.2138 5.44727 18.5851C5.44727 17.9564 5.95692 17.4468 6.58561 17.4468Z" fill="#338AFF"/>
<path fill-rule="evenodd" clip-rule="evenodd" d="M7.72271 4.92486C7.38929 4.59145 6.84873 4.59145 6.51531 4.92486L3.46922 7.97096C3.26547 8.17471 3.26547 8.50506 3.46922 8.70881L6.51531 11.7549C6.84873 12.0883 7.38929 12.0883 7.72271 11.7549C8.05612 11.4215 8.05612 10.8809 7.72271 10.5475L5.51508 8.33988L7.72271 6.13226C8.05612 5.79884 8.05612 5.25828 7.72271 4.92486ZM12.2763 6.13226L14.4839 8.33988L12.2763 10.5475C11.9428 10.8809 11.9428 11.4215 12.2763 11.7549C12.6097 12.0883 13.1502 12.0883 13.4836 11.7549L16.5297 8.70881C16.7335 8.50506 16.7335 8.17471 16.5297 7.97096L13.4836 4.92486C13.1502 4.59145 12.6097 4.59145 12.2763 4.92486C11.9428 5.25828 11.9428 5.79884 12.2763 6.13226Z" fill="#177CFF"/>
</g>
</svg>
