<svg width="20" height="20" viewBox="0 0 20 20" fill="none" xmlns="http://www.w3.org/2000/svg">
<path opacity="0.35" d="M0.554688 15.4444C0.554688 17.6536 2.34555 19.4444 4.55469 19.4444H15.4436C17.6527 19.4444 19.4436 17.6536 19.4436 15.4444V4.55554C19.4436 2.3464 17.6527 0.555542 15.4436 0.555542H4.55468C2.34555 0.555542 0.554688 2.3464 0.554688 4.55554V15.4444Z" fill="#338AFF"/>
<path d="M11.3227 14.0122H14.8503M15.5558 15.5555L14.8503 14.0122L15.5558 15.5555ZM10.6172 15.5555L11.3227 14.0122L10.6172 15.5555ZM11.3227 14.0122L13.0865 9.99963L14.8503 14.0122H11.3227Z" stroke="#177CFF" stroke-width="1.60857" stroke-linecap="round" stroke-linejoin="round"/>
<path d="M7.53125 4.44366L7.83991 5.36965" stroke="#177CFF" stroke-width="1.60857" stroke-linecap="round" stroke-linejoin="round"/>
<path d="M4.44531 5.98688H11.2359" stroke="#177CFF" stroke-width="1.60857" stroke-linecap="round" stroke-linejoin="round"/>
<path d="M5.68164 7.5304C5.68164 7.5304 6.23399 9.46289 7.61485 10.5365C8.99568 11.6101 11.2375 12.469 11.2375 12.469" stroke="#177CFF" stroke-width="1.60857" stroke-linecap="round" stroke-linejoin="round"/>
<path d="M10.0012 5.98688C10.0012 5.98688 9.44887 8.52327 8.06801 9.93238C6.68718 11.3415 4.44531 12.4688 4.44531 12.4688" stroke="#177CFF" stroke-width="1.60857" stroke-linecap="round" stroke-linejoin="round"/>
</svg>
