<svg width="20" height="20" viewBox="0 0 20 20" fill="none" xmlns="http://www.w3.org/2000/svg">
<mask id="mask0" mask-type="alpha" maskUnits="userSpaceOnUse" x="0" y="0" width="20" height="20">
<path d="M0 0H20V20H0V0Z" fill="#C4C4C4"/>
</mask>
<g mask="url(#mask0)">
<path opacity="0.45" fill-rule="evenodd" clip-rule="evenodd" d="M15.3472 6.13892H17.7778L13.4028 0.763916V4.19447C13.4028 5.26836 14.2733 6.13892 15.3472 6.13892ZM5.13932 19.2362C3.52849 19.2362 2.22266 17.9303 2.22266 16.3195V3.68061C2.22266 2.06978 3.52849 0.763943 5.13932 0.763943H12.431V4.1945C12.431 5.80533 13.7368 7.11117 15.3477 7.11117H17.7782V16.3195C17.7782 17.9303 16.4724 19.2362 14.8615 19.2362H5.13932Z" fill="#338AFF"/>
<path fill-rule="evenodd" clip-rule="evenodd" d="M4.60352 5.62496C4.60352 5.06117 5.06056 4.60413 5.62435 4.60413H10.4855C11.0493 4.60413 11.5063 5.06117 11.5063 5.62496C11.5063 6.18875 11.0493 6.64579 10.4855 6.64579H5.62435C5.06056 6.64579 4.60352 6.18875 4.60352 5.62496ZM4.60352 9.99996C4.60352 9.43617 5.06056 8.97913 5.62435 8.97913H14.3743C14.9381 8.97913 15.3952 9.43617 15.3952 9.99996C15.3952 10.5637 14.9381 11.0208 14.3743 11.0208H5.62435C5.06056 11.0208 4.60352 10.5637 4.60352 9.99996ZM5.62435 13.3541C5.06056 13.3541 4.60352 13.8112 4.60352 14.375C4.60352 14.9387 5.06056 15.3958 5.62435 15.3958H14.3743C14.9381 15.3958 15.3952 14.9387 15.3952 14.375C15.3952 13.8112 14.9381 13.3541 14.3743 13.3541H5.62435Z" fill="#177CFF"/>
</g>
</svg>
