<svg width="20" height="20" viewBox="0 0 20 20" fill="none" xmlns="http://www.w3.org/2000/svg">
<mask id="mask0" mask-type="alpha" maskUnits="userSpaceOnUse" x="0" y="0" width="20" height="20">
<path d="M0 0H20V20H0V0Z" fill="#C4C4C4"/>
</mask>
<g mask="url(#mask0)">
</g>
<g clip-path="url(#clip0)">
<path opacity="0.5" d="M8.65625 0.297208C8.65625 0.186751 8.74579 0.0972081 8.85625 0.0972081H11.2263C11.3368 0.0972081 11.4263 0.186751 11.4263 0.297208V19.7722C11.4263 19.8827 11.3368 19.9722 11.2263 19.9722H8.85625C8.74579 19.9722 8.65625 19.8827 8.65625 19.7722V0.297208Z" fill="#999999"/>
<path fill-rule="evenodd" clip-rule="evenodd" d="M11.0551 10.0129L11.0551 10.0155L17.2025 10.0155L14.9941 12.2238L17.2025 14.4322L11.0551 14.4322L8.84678 14.4322H3.9056L1.69727 12.2238L3.9056 10.0155H8.84678L8.84681 10.0129H11.0551ZM11.4266 7.78386L16.0944 7.7839L18.3028 5.57556L16.0944 3.36723L11.0801 3.36719L8.87177 3.3672L2.79802 3.36719L5.00636 5.57552L2.79802 7.78386H8.65656V7.78382H11.4266V7.78386Z" fill="#333333"/>
</g>
<defs>
<clipPath id="clip0">
<rect width="19.875" height="19.875" fill="white" transform="translate(0.0136719 0.112183)"/>
</clipPath>
</defs>
</svg>
