<svg width="21" height="20" viewBox="0 0 21 20" fill="none" xmlns="http://www.w3.org/2000/svg">
<path d="M19.9096 0.0911255H0.0917969V19.9089H19.9096V0.0911255Z" fill="white" fill-opacity="0.01"/>
<path opacity="0.4" fill-rule="evenodd" clip-rule="evenodd" d="M0 9.99998C0 4.47677 4.47744 -0.000671387 10.0007 -0.000671387C15.5239 -0.000671387 20.0013 4.47677 20.0013 9.99998C20.0013 10.9624 19.4498 11.5892 18.7877 11.9728C18.1724 12.3293 17.3857 12.5269 16.6769 12.6804C16.4537 12.7287 16.2365 12.7731 16.0251 12.8162C15.5156 12.9202 15.0395 13.0173 14.5923 13.1474C13.953 13.3334 13.5668 13.538 13.3712 13.7588C13.0931 14.0726 12.9206 14.5139 12.8096 15.0977C12.7305 15.5136 12.6933 15.9251 12.6535 16.3663C12.6352 16.5681 12.6164 16.7762 12.5928 16.9938C12.5252 17.6153 12.4141 18.3575 12.0495 18.9452C11.8548 19.259 11.5849 19.5359 11.2179 19.728C10.8555 19.9177 10.4448 20.0006 10.0007 20.0006C4.47744 20.0006 0 15.5232 0 9.99998Z" fill="#338AFF"/>
<path fill-rule="evenodd" clip-rule="evenodd" d="M9.69049 5.41255C9.69049 4.22682 10.6517 3.26562 11.8374 3.26562C13.0232 3.26562 13.9844 4.22682 13.9844 5.41255C13.9844 6.59829 13.0232 7.55948 11.8374 7.55948C10.6517 7.55948 9.69049 6.59829 9.69049 5.41255ZM4.18555 7.24763C4.18555 6.06189 5.14674 5.1007 6.33248 5.1007C7.51821 5.1007 8.4794 6.06189 8.4794 7.24763C8.4794 8.43336 7.51821 9.39455 6.33248 9.39455C5.14674 9.39455 4.18555 8.43336 4.18555 7.24763ZM6.7905 11.0643C5.60477 11.0643 4.64358 12.0255 4.64358 13.2113C4.64358 14.397 5.60477 15.3582 6.7905 15.3582C7.97624 15.3582 8.93743 14.397 8.93743 13.2113C8.93743 12.0255 7.97624 11.0643 6.7905 11.0643Z" fill="#177CFF"/>
</svg>
