<svg width="21" height="20" viewBox="0 0 21 20" fill="none" xmlns="http://www.w3.org/2000/svg">
<path d="M19.9096 0.0910645H0.0917969V19.9089H19.9096V0.0910645Z" fill="white" fill-opacity="0.01"/>
<path opacity="0.5" fill-rule="evenodd" clip-rule="evenodd" d="M0 9.99992C0 4.47671 4.47744 -0.000732422 10.0007 -0.000732422C15.5239 -0.000732422 20.0013 4.47671 20.0013 9.99992C20.0013 10.9623 19.4498 11.5891 18.7877 11.9727C18.1724 12.3292 17.3857 12.5269 16.6769 12.6803C16.4537 12.7287 16.2365 12.773 16.0251 12.8161C15.5156 12.9201 15.0395 13.0173 14.5923 13.1474C13.953 13.3333 13.5668 13.538 13.3712 13.7587C13.0931 14.0726 12.9206 14.5139 12.8096 15.0977C12.7305 15.5136 12.6933 15.9251 12.6535 16.3662C12.6352 16.5681 12.6164 16.7761 12.5928 16.9937C12.5252 17.6152 12.4141 18.3575 12.0495 18.9451C11.8548 19.259 11.5849 19.5359 11.2179 19.728C10.8555 19.9177 10.4448 20.0006 10.0007 20.0006C4.47744 20.0006 0 15.5231 0 9.99992Z" fill="#999999"/>
<path fill-rule="evenodd" clip-rule="evenodd" d="M9.69049 5.41243C9.69049 4.22669 10.6517 3.2655 11.8374 3.2655C13.0232 3.2655 13.9844 4.22669 13.9844 5.41243C13.9844 6.59817 13.0232 7.55936 11.8374 7.55936C10.6517 7.55936 9.69049 6.59817 9.69049 5.41243ZM4.18555 7.2475C4.18555 6.06177 5.14674 5.10057 6.33248 5.10057C7.51821 5.10057 8.4794 6.06177 8.4794 7.2475C8.4794 8.43324 7.51821 9.39443 6.33248 9.39443C5.14674 9.39443 4.18555 8.43324 4.18555 7.2475ZM6.7905 11.0642C5.60477 11.0642 4.64358 12.0254 4.64358 13.2112C4.64358 14.3969 5.60477 15.3581 6.7905 15.3581C7.97624 15.3581 8.93743 14.3969 8.93743 13.2112C8.93743 12.0254 7.97624 11.0642 6.7905 11.0642Z" fill="#333333"/>
</svg>
