<svg width="100%" height="100%" viewBox="0 0 18 18" fill="none" xmlns="http://www.w3.org/2000/svg">
<rect width="18" height="18" fill="white" fill-opacity="0.01"/>
<path d="M3.28571 1.00024H5.57143C6.17764 1.00024 6.75902 1.24106 7.18767 1.66971C7.61633 2.09837 7.85714 2.67975 7.85714 3.28596V7.85739H3.28571C2.67951 7.85739 2.09812 7.61657 1.66947 7.18792C1.24082 6.75926 1 6.17788 1 5.57167V3.28596C1 2.67975 1.24082 2.09837 1.66947 1.66971C2.09812 1.24106 2.67951 1.00024 3.28571 1.00024ZM12.4286 1.00024H14.7143C15.3205 1.00024 15.9019 1.24106 16.3305 1.66971C16.7592 2.09837 17 2.67975 17 3.28596V5.57167C17 6.17788 16.7592 6.75926 16.3305 7.18792C15.9019 7.61657 15.3205 7.85739 14.7143 7.85739H10.1429V3.28596C10.1429 2.67975 10.3837 2.09837 10.8123 1.66971C11.241 1.24106 11.8224 1.00024 12.4286 1.00024ZM3.28571 10.1431H7.85714V14.7145C7.85714 15.3207 7.61633 15.9021 7.18767 16.3308C6.75902 16.7594 6.17764 17.0002 5.57143 17.0002H3.28571C2.67951 17.0002 2.09812 16.7594 1.66947 16.3308C1.24082 15.9021 1 15.3207 1 14.7145V12.4288C1 11.8226 1.24082 11.2412 1.66947 10.8126C2.09812 10.3839 2.67951 10.1431 3.28571 10.1431ZM10.1429 10.1431H14.7143C15.3205 10.1431 15.9019 10.3839 16.3305 10.8126C16.7592 11.2412 17 11.8226 17 12.4288V14.7145C17 15.3207 16.7592 15.9021 16.3305 16.3308C15.9019 16.7594 15.3205 17.0002 14.7143 17.0002H12.4286C11.8224 17.0002 11.241 16.7594 10.8123 16.3308C10.3837 15.9021 10.1429 15.3207 10.1429 14.7145V10.1431Z" fill="#333333"/>
</svg>
