<svg width="100%" height="100%" viewBox="0 0 40 20" fill="none" xmlns="http://www.w3.org/2000/svg">
<rect width="40" height="20" rx="2" fill="#FEECEC"/>
<path d="M10.292 4.232V6.5H8.828V7.328H10.292C9.92 8.84 9.308 10.196 8.444 11.372L8.816 12.308C9.416 11.372 9.908 10.34 10.292 9.212V15.188H11.144V9.176C11.504 9.632 11.924 10.232 12.416 10.988L12.908 10.256C12.32 9.524 11.732 8.852 11.144 8.252V7.328H12.536V6.5H11.144V4.232H10.292ZM13.832 9.656C13.496 11.144 12.956 12.488 12.212 13.7L12.956 14.18C13.676 12.956 14.24 11.516 14.624 9.836L13.832 9.656ZM18.176 9.596L17.396 9.848C17.864 11.144 18.296 12.62 18.692 14.288L19.472 13.94C19.112 12.404 18.68 10.952 18.176 9.596ZM15.488 15.068C16.184 15.068 16.544 14.708 16.544 14V8.66H19.484V7.832H12.752V8.66H15.68V13.784C15.68 14.132 15.512 14.312 15.188 14.312C14.84 14.312 14.48 14.288 14.096 14.264L14.264 15.068H15.488ZM13.388 4.916V5.732H18.86V4.916H13.388ZM28.808 11.072C28.448 12.2 28.04 13.172 27.572 13.988H20.948V14.792H31.076V13.988H28.496C28.952 13.196 29.336 12.296 29.648 11.3L28.808 11.072ZM23.072 11.216L22.292 11.468C22.676 12.164 22.988 12.896 23.228 13.664L24.008 13.46C23.732 12.62 23.42 11.864 23.072 11.216ZM25.844 10.976L25.052 11.228C25.364 11.972 25.616 12.752 25.82 13.568L26.588 13.364C26.372 12.464 26.12 11.672 25.844 10.976ZM22.892 9.824V10.592H29.12V9.824H22.892ZM22.412 5.996H23.324C23.54 6.464 23.72 6.956 23.876 7.46L24.668 7.172C24.548 6.812 24.38 6.416 24.188 5.996H25.916V5.228H22.76C22.868 4.94 22.976 4.652 23.072 4.34L22.232 4.16C21.896 5.264 21.356 6.272 20.612 7.184L21.356 7.652C21.752 7.148 22.1 6.596 22.412 5.996ZM27.464 5.996H28.508C28.772 6.5 29.012 7.028 29.228 7.568L30.02 7.28C29.864 6.872 29.66 6.452 29.396 5.996H31.304V5.228H27.8C27.896 4.94 27.992 4.652 28.088 4.34L27.26 4.16C27.008 5.096 26.6 5.936 26.036 6.704L26.768 7.172C27.02 6.812 27.248 6.416 27.464 5.996ZM25.724 7.184C24.344 8.204 22.616 9.056 20.552 9.752L20.96 10.496C23.048 9.764 24.728 8.9 26 7.892C27.392 8.972 29.06 9.836 31.028 10.508L31.448 9.764C29.492 9.14 27.764 8.276 26.276 7.184H25.724Z" fill="#F65656"/>
</svg>
