<svg width="100%" height="100%" viewBox="0 0 16 16" fill="none" xmlns="http://www.w3.org/2000/svg">
<path d="M16 0H0V16H16V0Z" fill="white" fill-opacity="0.01"/>
<path d="M8.00065 2V14C5.66732 14 3.93348 10.9464 3.93348 10.9464H2.00065C1.63246 10.9464 1.33398 10.6479 1.33398 10.2797V5.67027C1.33398 5.30207 1.63246 5.0036 2.00065 5.0036H3.93348C3.93348 5.0036 5.66732 2 8.00065 2Z" fill="#FFA900" stroke="#FFA900" stroke-width="1.33333" stroke-linejoin="round"/>
<path d="M10.666 5C10.8737 5.1855 11.062 5.39323 11.2274 5.6196C11.7122 6.28347 11.9993 7.10743 11.9993 8C11.9993 8.88483 11.7172 9.70223 11.2399 10.3631C11.0716 10.5962 10.879 10.8098 10.666 11" stroke="#FFA900" stroke-width="1.33333" stroke-linecap="round" stroke-linejoin="round"/>
<path d="M11.4121 13.7285C13.3613 12.565 14.6668 10.4349 14.6668 7.99994C14.6668 5.60277 13.4016 3.50111 11.5025 2.32629" stroke="#FFA900" stroke-width="1.33333" stroke-linecap="round"/>
</svg>
